<svg width="283" height="42" viewBox="0 0 283 42" fill="none" xmlns="http://www.w3.org/2000/svg">
<path d="M36.8339 4.72482L30.0938 16.2649L43.5886 16.2566L43.5945 25.7165L30.0999 25.7248L36.8546 37.2566L28.5579 41.9915L21.8032 30.4598L15.0633 42L6.7606 37.275L13.5003 25.7349L0.00605216 25.7434L0 16.2835L13.4948 16.275L6.74025 4.74341L15.0368 0.00829731L21.7913 11.5399L28.5314 0L36.8339 4.72482Z" fill="#305353"/>
<path d="M165.375 29.2127C164.18 31.2556 162.649 32.7831 160.78 33.7953C158.912 34.8075 156.935 35.298 154.849 35.2669C152.752 35.1955 150.734 34.6069 148.794 33.5012C146.854 32.3955 145.343 30.9387 144.262 29.1309C143.155 27.3084 142.571 25.3583 142.51 23.2806C142.464 21.1775 143.023 19.13 144.188 17.1382C145.353 15.1464 146.855 13.67 148.693 12.7089C150.546 11.7222 152.534 11.272 154.657 11.3581C156.769 11.404 158.795 11.9798 160.735 13.0855C161.019 13.2477 161.309 13.43 161.605 13.6324C161.9 13.8349 162.201 14.0575 162.508 14.3002L153.793 29.2002C155.147 29.5975 156.446 29.5886 157.689 29.1735C158.947 28.7328 159.957 27.8613 160.719 26.559C161.376 25.4354 161.685 24.3176 161.645 23.2056C161.621 22.0681 161.355 21.0484 160.848 20.1464L166.265 17.8716C167.07 19.3856 167.41 21.1628 167.286 23.203C167.162 25.2433 166.525 27.2465 165.375 29.2127ZM148.644 19.7801C147.928 21.0058 147.69 22.2666 147.933 23.5623C148.175 24.8581 148.822 25.9929 149.874 26.9667L155.631 17.1227C154.355 16.7696 153.054 16.8115 151.729 17.2482C150.42 17.6593 149.391 18.5033 148.644 19.7801Z" fill="#101C1C"/>
<path d="M121.627 34.7708V2.48363H127.676V21.0598L136.414 11.7717H145.017L134.039 22.4751L145.061 34.7708H137.041L127.676 23.8462V34.7708H121.627Z" fill="#101C1C"/>
<path d="M104.636 35.3458C102.515 35.3458 100.573 34.815 98.8108 33.7535C97.0782 32.6626 95.6892 31.2177 94.6437 29.4191C93.6281 27.591 93.1203 25.5712 93.1203 23.3597C93.1203 21.7085 93.419 20.1605 94.0164 18.7157C94.6138 17.2414 95.4353 15.9587 96.4808 14.8678C97.5263 13.7473 98.7361 12.8774 100.11 12.2582C101.514 11.6095 103.023 11.2852 104.636 11.2852C106.667 11.2852 108.25 11.6685 109.385 12.4352C110.52 13.1723 111.402 14.1601 112.029 15.3985V11.7717H118.033V34.7708H112.163V31.0113C111.536 32.3087 110.64 33.3555 109.475 34.1516C108.34 34.9477 106.727 35.3458 104.636 35.3458ZM105.621 29.9498C106.966 29.9498 108.116 29.655 109.072 29.0653C110.057 28.4461 110.819 27.6352 111.357 26.6327C111.894 25.6301 112.163 24.5392 112.163 23.3597C112.163 22.1508 111.894 21.0451 111.357 20.0425C110.819 19.04 110.057 18.2292 109.072 17.61C108.116 16.9907 106.966 16.6811 105.621 16.6811C104.337 16.6811 103.202 16.9907 102.216 17.61C101.26 18.1997 100.513 18.9958 99.9758 19.9983C99.4381 21.0008 99.1692 22.1066 99.1692 23.3155C99.1692 24.4654 99.4381 25.5564 99.9758 26.5884C100.513 27.591 101.26 28.4018 102.216 29.021C103.202 29.6402 104.337 29.9498 105.621 29.9498Z" fill="#101C1C"/>
<path d="M53.2349 34.7708V11.7717H59.1943V15.1331C60.419 12.5383 62.7938 11.2409 66.3186 11.2409C67.9616 11.2409 69.4402 11.6243 70.7545 12.3909C72.0689 13.128 73.1144 14.1895 73.8911 15.5754C74.6677 14.1895 75.6535 13.128 76.8483 12.3909C78.0731 11.6243 79.716 11.2409 81.7771 11.2409C83.4499 11.2409 84.9584 11.6243 86.3026 12.3909C87.6469 13.1575 88.7073 14.2485 89.4839 15.6638C90.2606 17.0792 90.6489 18.7599 90.6489 20.7059V34.7708H84.6V22.1655C84.6 20.1605 84.1668 18.7156 83.3006 17.8311C82.4343 16.917 81.3141 16.46 79.94 16.46C78.5361 16.46 77.386 16.858 76.4899 17.6541C75.6236 18.4503 75.1905 19.9541 75.1905 22.1655V34.7708H69.1415V22.1655C69.1415 20.1605 68.6785 18.7156 67.7525 17.8311C66.8264 16.917 65.6167 16.46 64.1231 16.46C62.8386 16.46 61.7035 16.917 60.7177 17.8311C59.7619 18.7156 59.2839 20.1605 59.2839 22.1655V34.7708H53.2349Z" fill="#101C1C"/>
<path d="M270.939 34.7893C268.549 34.7893 266.443 34.2438 264.621 33.1528C262.799 32.0618 261.38 30.617 260.364 28.8183C259.379 26.9902 258.886 24.9704 258.886 22.759C258.886 20.5475 259.408 18.5277 260.454 16.6996C261.499 14.842 262.918 13.3677 264.711 12.2767C266.533 11.1857 268.609 10.6402 270.939 10.6402C273.269 10.6402 275.315 11.1857 277.077 12.2767C278.87 13.3677 280.259 14.842 281.244 16.6996C282.26 18.5277 282.768 20.5475 282.768 22.759C282.768 23.0833 282.753 23.4224 282.723 23.7762C282.693 24.1301 282.648 24.4986 282.589 24.882H265.159C265.487 26.2383 266.144 27.344 267.13 28.1991C268.146 29.0542 269.415 29.4818 270.939 29.4818C272.253 29.4818 273.388 29.1869 274.344 28.5972C275.33 28.0075 276.092 27.2703 276.629 26.3858L281.334 29.8798C280.408 31.3247 279.019 32.5041 277.167 33.4182C275.315 34.3322 273.239 34.7893 270.939 34.7893ZM270.849 15.7708C269.415 15.7708 268.191 16.1983 267.175 17.0534C266.159 17.9085 265.487 19.029 265.159 20.4148H276.674C276.345 19.1469 275.658 18.056 274.613 17.1419C273.597 16.2278 272.343 15.7708 270.849 15.7708Z" fill="#305353"/>
<path d="M248.373 34.7893C244.46 34.7893 241.234 33.4476 238.695 30.7644L242.772 27.0934C244.475 28.9805 246.297 29.9241 248.239 29.9241C249.284 29.9241 250.076 29.7029 250.613 29.2606C251.181 28.7889 251.465 28.2139 251.465 27.5357C251.465 27.1229 251.36 26.7691 251.151 26.4742C250.972 26.1793 250.569 25.8992 249.941 25.6339C249.344 25.3685 248.433 25.1031 247.208 24.8377C245.117 24.3365 243.564 23.7173 242.548 22.9801C241.533 22.243 240.86 21.4174 240.532 20.5033C240.203 19.5892 240.039 18.6457 240.039 17.6726C240.039 15.6676 240.801 14.0016 242.324 12.6748C243.877 11.3184 246.013 10.6402 248.732 10.6402C250.613 10.6402 252.227 10.9203 253.571 11.4806C254.915 12.0408 256.184 13.0876 257.379 14.6208L252.988 17.938C252.421 17.0534 251.778 16.4195 251.062 16.0362C250.374 15.6528 249.643 15.4612 248.866 15.4612C248.03 15.4612 247.328 15.6234 246.76 15.9477C246.222 16.272 245.953 16.7881 245.953 17.4957C245.953 17.879 246.133 18.2624 246.491 18.6457C246.85 18.9995 247.716 19.3533 249.09 19.7072C251.36 20.2674 253.093 20.9308 254.288 21.6975C255.482 22.4346 256.304 23.275 256.752 24.2185C257.2 25.1621 257.424 26.2088 257.424 27.3588C257.424 28.7741 257.021 30.042 256.214 31.1625C255.438 32.283 254.362 33.1675 252.988 33.8162C251.644 34.4649 250.106 34.7893 248.373 34.7893Z" fill="#305353"/>
<path d="M215.062 34.2143V11.2152H221.022V14.5766C222.246 11.9818 224.621 10.6844 228.146 10.6844C229.819 10.6844 231.327 11.0678 232.671 11.8344C234.016 12.601 235.076 13.692 235.853 15.1073C236.629 16.5227 237.018 18.2034 237.018 20.1495V34.2143H230.969V21.609C230.969 19.604 230.506 18.1591 229.58 17.2746C228.654 16.3605 227.444 15.9035 225.95 15.9035C224.666 15.9035 223.531 16.3605 222.545 17.2746C221.589 18.1591 221.111 19.604 221.111 21.609V34.2143H215.062Z" fill="#305353"/>
<path d="M200.578 34.7893C198.188 34.7893 196.082 34.2438 194.26 33.1528C192.438 32.0618 191.019 30.617 190.003 28.8183C189.017 26.9902 188.524 24.9704 188.524 22.759C188.524 20.5475 189.047 18.5277 190.093 16.6996C191.138 14.842 192.557 13.3677 194.349 12.2767C196.171 11.1857 198.248 10.6402 200.578 10.6402C202.908 10.6402 204.954 11.1857 206.716 12.2767C208.508 13.3677 209.897 14.842 210.883 16.6996C211.899 18.5277 212.407 20.5475 212.407 22.759C212.407 23.0833 212.392 23.4224 212.362 23.7762C212.332 24.1301 212.287 24.4986 212.227 24.882H194.797C195.126 26.2383 195.783 27.344 196.769 28.1991C197.785 29.0542 199.054 29.4818 200.578 29.4818C201.892 29.4818 203.027 29.1869 203.983 28.5972C204.969 28.0075 205.73 27.2703 206.268 26.3858L210.973 29.8798C210.047 31.3247 208.658 32.5041 206.806 33.4182C204.954 34.3322 202.878 34.7893 200.578 34.7893ZM200.488 15.7708C199.054 15.7708 197.829 16.1983 196.814 17.0534C195.798 17.9085 195.126 19.029 194.797 20.4148H206.313C205.984 19.1469 205.297 18.056 204.252 17.1419C203.236 16.2278 201.982 15.7708 200.488 15.7708Z" fill="#305353"/>
<path d="M178.012 34.7893C174.099 34.7893 170.873 33.4476 168.334 30.7644L172.411 27.0934C174.114 28.9805 175.936 29.9241 177.877 29.9241C178.923 29.9241 179.715 29.7029 180.252 29.2606C180.82 28.7889 181.104 28.2139 181.104 27.5357C181.104 27.1229 180.999 26.7691 180.79 26.4742C180.611 26.1793 180.207 25.8992 179.58 25.6339C178.983 25.3685 178.072 25.1031 176.847 24.8377C174.756 24.3365 173.203 23.7173 172.187 22.9801C171.171 22.243 170.499 21.4174 170.171 20.5033C169.842 19.5892 169.678 18.6457 169.678 17.6726C169.678 15.6676 170.44 14.0016 171.963 12.6748C173.516 11.3184 175.652 10.6402 178.37 10.6402C180.252 10.6402 181.865 10.9203 183.21 11.4806C184.554 12.0408 185.823 13.0876 187.018 14.6208L182.627 17.938C182.06 17.0534 181.417 16.4195 180.7 16.0362C180.013 15.6528 179.281 15.4612 178.505 15.4612C177.668 15.4612 176.966 15.6234 176.399 15.9477C175.861 16.272 175.592 16.7881 175.592 17.4957C175.592 17.879 175.772 18.2624 176.13 18.6457C176.488 18.9995 177.355 19.3533 178.729 19.7072C180.999 20.2674 182.732 20.9308 183.926 21.6975C185.121 22.4346 185.943 23.275 186.391 24.2185C186.839 25.1621 187.063 26.2088 187.063 27.3588C187.063 28.7741 186.66 30.042 185.853 31.1625C185.077 32.283 184.001 33.1675 182.627 33.8162C181.283 34.4649 179.744 34.7893 178.012 34.7893Z" fill="#305353"/>
</svg>
